<?xml version="1.0" encoding="UTF-8"?>
<svg version="1.1" xmlns="http://www.w3.org/2000/svg" width="512" height="512">
<path d="M0 0 C6.4155886 3.83423224 11.7282282 9.44870722 14 16.67578125 C15.66175887 25.50387523 15.296155 34.30344879 10.4375 42 C6.8762635 46.61617379 2.94396261 50.91194105 -0.97314453 55.22509766 C-3.12506694 57.62824295 -5.1614358 60.1153183 -7.1875 62.625 C-10.42979148 66.62738911 -13.72643128 70.57595635 -17.0625 74.5 C-21.18127259 79.34670202 -25.22851064 84.24531057 -29.2421875 89.1796875 C-32.28126084 92.87364533 -35.37769603 96.51761989 -38.49414062 100.14648438 C-42.33479394 104.64752152 -45.95489774 109.31103569 -49.5625 114 C-48.67280518 114.09498779 -47.78311035 114.18997559 -46.86645508 114.2878418 C-29.49966249 116.17565842 -12.38928645 118.10160727 4.4375 123 C5.18918457 123.21350098 5.94086914 123.42700195 6.71533203 123.64697266 C16.08891812 126.36192653 24.96478756 129.95278625 33.8125 134.0625 C34.71097656 134.47395264 35.60945313 134.88540527 36.53515625 135.30932617 C41.14844306 137.52633546 44.90003045 139.34324723 47.4375 144 C47.35435547 145.46953125 47.35435547 145.46953125 47.26953125 146.96875 C47.12912187 149.92721424 47.12912187 149.92721424 48.65380859 151.4453125 C50.41339917 152.91841025 52.22343177 154.21582405 54.125 155.5 C55.06375977 156.19996094 55.06375977 156.19996094 56.02148438 156.9140625 C58.0901554 158.42813184 58.0901554 158.42813184 61.4375 160 C64.04999469 159.29041938 64.04999469 159.29041938 66.4375 158 C71.18689582 158.22645315 73.53127507 159.44319069 76.9375 162.6875 C78.22527344 163.91339844 78.22527344 163.91339844 79.5390625 165.1640625 C80.0021582 165.61813477 80.46525391 166.07220703 80.94238281 166.54003906 C82.53520159 168.09540423 84.153622 169.62123581 85.7734375 171.1484375 C120.23835358 204.10611352 137.60931947 250.62535606 138.72314453 297.84204102 C139.27243601 353.48526807 117.35943159 404.04556104 78.96582031 443.75463867 C72.12970874 450.69685203 64.97348494 456.9575686 57.13623047 462.74121094 C55.48240162 463.96672711 53.85215656 465.21896464 52.22265625 466.4765625 C11.47834038 497.34532261 -40.78684337 510.48013787 -91.1875 510.375 C-92.2178537 510.37412384 -93.2482074 510.37324768 -94.30978394 510.37234497 C-128.76205743 510.27614955 -161.48953464 504.23295277 -194.1875 493.4375 C-194.8751947 493.21206512 -195.5628894 492.98663025 -196.27142334 492.75436401 C-216.31636982 486.12869543 -233.38435262 476.72649912 -244.1796875 457.87890625 C-252.89274421 439.73901135 -253.75312637 420.90612399 -247.53125 401.83984375 C-241.40645261 385.80363437 -229.50434826 373.11218955 -214.02587891 365.80200195 C-206.33158024 362.41490037 -198.62622474 360.37919302 -190.4375 358.5625 C-168.01822348 353.3365284 -145.70549689 346.78440218 -127.5625 332 C-126.49 331.236875 -125.4175 330.47375 -124.3125 329.6875 C-116.577753 322.12854271 -112.24878849 313.01877462 -111.5390625 302.3203125 C-111.61508858 291.54995133 -115.23767681 282.27059471 -122.16796875 274.109375 C-127.9597052 268.43270616 -135.46605338 265.35245436 -142.69482422 261.90917969 C-146.40610249 260.10253913 -149.98982312 258.06421331 -153.5625 256 C-153.80355469 256.55945313 -154.04460937 257.11890625 -154.29296875 257.6953125 C-155.82775428 260.48153854 -157.71339294 262.54264415 -159.875 264.875 C-162.44527084 267.66288163 -164.94280474 270.42909833 -167.25 273.4375 C-169.82079939 276.28622365 -172.00495058 277.60791544 -175.5625 279 C-176.5525 279 -177.5425 279 -178.5625 279 C-178.48 280.27875 -178.3975 281.5575 -178.3125 282.875 C-178.34044038 302.54502596 -186.80435805 322.48449195 -200.1640625 336.6875 C-219.83624272 355.65481383 -253.66952887 362.87304217 -280.15380859 362.46801758 C-288.01180105 362.09573517 -292.14460387 359.7406337 -297.4375 354.125 C-307.59614601 341.51904382 -304.5041448 317.48636893 -303.04956055 302.14111328 C-300.4501132 279.34843074 -293.33506131 260.01081976 -274.9375 245.3125 C-264.44983008 237.76990639 -249.66388575 230 -236.5625 230 C-236.52125 229.030625 -236.48 228.06125 -236.4375 227.0625 C-234.94314301 217.42581323 -225.98792121 209.73007984 -219.79296875 202.6953125 C-217.14558037 199.68443655 -214.58155263 196.61971397 -212.0625 193.5 C-207.9891767 188.47175842 -203.77511323 183.57812726 -199.51098633 178.71166992 C-196.80364818 175.6159306 -194.13832198 172.50252128 -191.56640625 169.29296875 C-181.74737667 157.08348204 -181.74737667 157.08348204 -175.5625 156 C-173.66550075 156.21930627 -171.7697344 156.44941819 -169.875 156.6875 C-166.70768054 156.79891325 -164.54112168 156.74203183 -161.96289062 154.78710938 C-158.3420411 151.21036276 -155.28471883 147.16487555 -152.20800781 143.12109375 C-149.60985033 139.77201479 -146.80232227 136.61569761 -144 133.4375 C-142.91395582 132.18742043 -141.82931295 130.93612202 -140.74609375 129.68359375 C-140.21612793 129.07112793 -139.68616211 128.45866211 -139.14013672 127.82763672 C-136.11000853 124.31733966 -133.09641305 120.79289524 -130.08178711 117.26928711 C-126.42523615 112.99841159 -122.7480289 108.74588252 -119.0625 104.5 C-112.86524488 97.35938391 -106.70860246 90.18465178 -100.5625 83 C-93.87281366 75.17991121 -87.16417166 67.37733785 -80.41821289 59.60571289 C-76.7843019 55.41682429 -73.16751281 51.21377487 -69.5625 47 C-65.41390148 42.15084658 -61.24578351 37.31926196 -57.0625 32.5 C-51.79049048 26.42608884 -46.54569625 20.32946424 -41.31640625 14.21875 C-40.86773193 13.69684082 -40.41905762 13.17493164 -39.95678711 12.63720703 C-38.97115928 11.47985802 -37.99641563 10.31319785 -37.02954102 9.14013672 C-34.37622113 5.95081368 -32.0099719 3.22907555 -28.375 1.125 C-27.72144531 0.73570313 -27.06789063 0.34640625 -26.39453125 -0.0546875 C-19.05674607 -3.84092207 -7.43945502 -3.42123086 0 0 Z " fill="#DAEBFD" transform="translate(338.5625,2)"/>
<path d="M0 0 C6.4155886 3.83423224 11.7282282 9.44870722 14 16.67578125 C15.66175887 25.50387523 15.296155 34.30344879 10.4375 42 C6.8762635 46.61617379 2.94396261 50.91194105 -0.97314453 55.22509766 C-3.12506694 57.62824295 -5.1614358 60.1153183 -7.1875 62.625 C-10.42979148 66.62738911 -13.72643128 70.57595635 -17.0625 74.5 C-21.18127259 79.34670202 -25.22851064 84.24531057 -29.2421875 89.1796875 C-32.28126084 92.87364533 -35.37769603 96.51761989 -38.49414062 100.14648438 C-42.33479394 104.64752152 -45.95489774 109.31103569 -49.5625 114 C-48.67280518 114.09498779 -47.78311035 114.18997559 -46.86645508 114.2878418 C-29.49966249 116.17565842 -12.38928645 118.10160727 4.4375 123 C5.18918457 123.21350098 5.94086914 123.42700195 6.71533203 123.64697266 C16.08891812 126.36192653 24.96478756 129.95278625 33.8125 134.0625 C34.71097656 134.47395264 35.60945313 134.88540527 36.53515625 135.30932617 C41.22259304 137.56196975 44.63651823 139.42557053 47.4375 144 C48.0625 146.5 48.0625 146.5 47.4375 149 C43.8731203 152.99906015 43.8731203 152.99906015 41.4375 154 C35.68124078 153.76161655 31.34719105 151.78554321 26.3125 149.25 C24.79703202 148.51650892 23.28009019 147.78605546 21.76171875 147.05859375 C21.02228027 146.70394043 20.2828418 146.34928711 19.52099609 145.98388672 C2.22048461 137.81408811 -18.16103491 132.9242798 -37.28515625 132.12744141 C-39.02171951 132.03026237 -40.75604706 131.89223816 -42.48828125 131.73583984 C-55.45939212 130.14254412 -55.45939212 130.14254412 -67.76953125 133.20117188 C-71.44536112 136.29060062 -73.97444567 140.07565919 -76.43017578 144.16650391 C-78.06793943 146.81842391 -80.04585652 149.12893763 -82.0625 151.5 C-82.7740625 152.3765625 -83.485625 153.253125 -84.21875 154.15625 C-86.95552227 157.47686702 -89.7535982 160.74040635 -92.5625 164 C-96.89219536 169.02614651 -101.15293228 174.0967504 -105.3125 179.265625 C-106.96717651 181.2765166 -108.64256184 183.23051137 -110.375 185.171875 C-110.84341309 185.70603027 -111.31182617 186.24018555 -111.79443359 186.79052734 C-113.1159927 188.29366766 -114.45213595 189.78394876 -115.7890625 191.2734375 C-117.83662518 193.81292365 -117.83662518 193.81292365 -117.35546875 196.51953125 C-117.09378906 197.33808594 -116.83210937 198.15664062 -116.5625 199 C-115.90029977 206.26249099 -116.1920352 212.01167676 -120.5625 218 C-122.93287631 220.77891514 -125.38491429 223.45600883 -127.88671875 226.1171875 C-135.71892824 234.35749015 -135.71892824 234.35749015 -141.5625 244 C-140.53511719 244.49628906 -139.50773438 244.99257812 -138.44921875 245.50390625 C-118.24605402 255.36226842 -103.98347997 265.41295272 -96.375 287.4375 C-93.32678437 300.74115296 -95.49787992 315.50646015 -101.94140625 327.4375 C-118.10410181 352.98624286 -148.72851104 366.04841783 -177.12597656 372.85400391 C-180.68357571 373.63509328 -184.24546289 374.38827278 -187.8125 375.125 C-203.34681209 378.34422753 -217.09216412 383.40287581 -226.625 396.92578125 C-232.15063827 405.98552567 -235.12984412 414.17970888 -235 424.8125 C-234.99242676 425.6876123 -234.98485352 426.56272461 -234.97705078 427.46435547 C-234.63490178 440.97299745 -229.0367776 453.31039791 -219.5625 463 C-212.12273612 469.32524672 -203.65676246 472.77217727 -194.5625 476 C-193.86060547 476.25136719 -193.15871094 476.50273437 -192.43554688 476.76171875 C-174.56373819 483.09969591 -156.25273359 487.81007208 -137.5625 491 C-136.68577637 491.15243164 -135.80905273 491.30486328 -134.90576172 491.46191406 C-120.46854526 493.85991629 -106.1628703 494.28817564 -91.5625 494.3125 C-90.26416733 494.31787781 -90.26416733 494.31787781 -88.93960571 494.32336426 C-77.336979 494.34923441 -66.04661664 493.66108448 -54.5625 492 C-53.66080078 491.87004639 -52.75910156 491.74009277 -51.83007812 491.60620117 C-28.94849832 487.99731214 -6.17878209 480.51182424 14.4375 470 C15.5821875 469.41847168 15.5821875 469.41847168 16.75 468.82519531 C60.85051701 446.08586623 96.66350014 407.44247748 112.4375 360 C114.75333687 352.41443951 116.73006363 344.7441807 118.4375 337 C118.70820313 335.80544189 118.97890625 334.61088379 119.2578125 333.38012695 C121.46413037 323.10865065 121.91746735 313.16956675 121.8125 302.6875 C121.80651794 301.47134506 121.80651794 301.47134506 121.80041504 300.23062134 C121.73136622 288.25315903 121.16677794 276.70236736 118.4375 265 C118.15565871 263.66288491 117.87441113 262.32564455 117.59375 260.98828125 C110.22315281 227.56566181 91.19586914 193.86351935 63.6484375 172.875 C61.4375 171 61.4375 171 60.4375 167.5625 C60.4375 163.56097264 60.7466629 161.95124069 63.4375 159 C66.1875 157.9375 66.1875 157.9375 69.4375 158 C76.18603883 161.10620009 80.94839062 166.01093296 86.125 171.25 C87.00913574 172.14243408 87.89327148 173.03486816 88.80419922 173.9543457 C122.44442942 208.45943452 138.94957289 255.47898378 138.73779297 303.32006836 C137.64557881 360.0807653 113.54199385 410.22240129 73.23046875 449.4609375 C68.15806421 454.27564265 62.75963352 458.59131992 57.13623047 462.74121094 C55.48240162 463.96672711 53.85215656 465.21896464 52.22265625 466.4765625 C11.47834038 497.34532261 -40.78684337 510.48013787 -91.1875 510.375 C-92.2178537 510.37412384 -93.2482074 510.37324768 -94.30978394 510.37234497 C-128.76205743 510.27614955 -161.48953464 504.23295277 -194.1875 493.4375 C-194.8751947 493.21206512 -195.5628894 492.98663025 -196.27142334 492.75436401 C-216.31636982 486.12869543 -233.38435262 476.72649912 -244.1796875 457.87890625 C-252.89274421 439.73901135 -253.75312637 420.90612399 -247.53125 401.83984375 C-241.40645261 385.80363437 -229.50434826 373.11218955 -214.02587891 365.80200195 C-206.33158024 362.41490037 -198.62622474 360.37919302 -190.4375 358.5625 C-168.01822348 353.3365284 -145.70549689 346.78440218 -127.5625 332 C-126.49 331.236875 -125.4175 330.47375 -124.3125 329.6875 C-116.577753 322.12854271 -112.24878849 313.01877462 -111.5390625 302.3203125 C-111.61508858 291.54995133 -115.23767681 282.27059471 -122.16796875 274.109375 C-127.9597052 268.43270616 -135.46605338 265.35245436 -142.69482422 261.90917969 C-146.40610249 260.10253913 -149.98982312 258.06421331 -153.5625 256 C-153.80355469 256.55945313 -154.04460937 257.11890625 -154.29296875 257.6953125 C-155.82775428 260.48153854 -157.71339294 262.54264415 -159.875 264.875 C-162.44527084 267.66288163 -164.94280474 270.42909833 -167.25 273.4375 C-169.82079939 276.28622365 -172.00495058 277.60791544 -175.5625 279 C-176.5525 279 -177.5425 279 -178.5625 279 C-178.48 280.27875 -178.3975 281.5575 -178.3125 282.875 C-178.34044038 302.54502596 -186.80435805 322.48449195 -200.1640625 336.6875 C-219.83624272 355.65481383 -253.66952887 362.87304217 -280.15380859 362.46801758 C-288.01180105 362.09573517 -292.14460387 359.7406337 -297.4375 354.125 C-307.59614601 341.51904382 -304.5041448 317.48636893 -303.04956055 302.14111328 C-300.4501132 279.34843074 -293.33506131 260.01081976 -274.9375 245.3125 C-264.44983008 237.76990639 -249.66388575 230 -236.5625 230 C-236.52125 229.030625 -236.48 228.06125 -236.4375 227.0625 C-234.94314301 217.42581323 -225.98792121 209.73007984 -219.79296875 202.6953125 C-217.14558037 199.68443655 -214.58155263 196.61971397 -212.0625 193.5 C-207.9891767 188.47175842 -203.77511323 183.57812726 -199.51098633 178.71166992 C-196.80364818 175.6159306 -194.13832198 172.50252128 -191.56640625 169.29296875 C-181.74737667 157.08348204 -181.74737667 157.08348204 -175.5625 156 C-173.66550075 156.21930627 -171.7697344 156.44941819 -169.875 156.6875 C-166.70768054 156.79891325 -164.54112168 156.74203183 -161.96289062 154.78710938 C-158.3420411 151.21036276 -155.28471883 147.16487555 -152.20800781 143.12109375 C-149.60985033 139.77201479 -146.80232227 136.61569761 -144 133.4375 C-142.91395582 132.18742043 -141.82931295 130.93612202 -140.74609375 129.68359375 C-140.21612793 129.07112793 -139.68616211 128.45866211 -139.14013672 127.82763672 C-136.11000853 124.31733966 -133.09641305 120.79289524 -130.08178711 117.26928711 C-126.42523615 112.99841159 -122.7480289 108.74588252 -119.0625 104.5 C-112.86524488 97.35938391 -106.70860246 90.18465178 -100.5625 83 C-93.87281366 75.17991121 -87.16417166 67.37733785 -80.41821289 59.60571289 C-76.7843019 55.41682429 -73.16751281 51.21377487 -69.5625 47 C-65.41390148 42.15084658 -61.24578351 37.31926196 -57.0625 32.5 C-51.79049048 26.42608884 -46.54569625 20.32946424 -41.31640625 14.21875 C-40.86773193 13.69684082 -40.41905762 13.17493164 -39.95678711 12.63720703 C-38.97115928 11.47985802 -37.99641563 10.31319785 -37.02954102 9.14013672 C-34.37622113 5.95081368 -32.0099719 3.22907555 -28.375 1.125 C-27.72144531 0.73570313 -27.06789063 0.34640625 -26.39453125 -0.0546875 C-19.05674607 -3.84092207 -7.43945502 -3.42123086 0 0 Z " fill="#010101" transform="translate(338.5625,2)"/>
<path d="M0 0 C4.84705822 1.05753998 7.26505512 3.79561805 10.78125 7.1953125 C13.32238153 9.63928312 15.93951879 11.85603273 18.6875 14.0625 C19.58597656 14.80371094 20.48445313 15.54492188 21.41015625 16.30859375 C23.66192298 18.12453466 25.92934039 19.86919297 28.24609375 21.59765625 C37.59168152 28.75361961 37.59168152 28.75361961 39.5 33.2578125 C39.65390174 36.32622853 39.15980889 38.75454255 38.4375 41.75 C38.12899649 43.30965662 37.82182086 44.8695762 37.515625 46.4296875 C34.27878292 61.76524931 28.71231318 76.47032844 15.44921875 85.8671875 C-1.91018693 96.47905026 -29.07431766 105.35002314 -49.5625 102.75 C-52.49673195 100.95353146 -54.03455355 99.8058929 -55.5625 96.75 C-55.68629567 94.020118 -55.75098087 91.31692842 -55.765625 88.5859375 C-55.77132507 87.76106842 -55.77702515 86.93619934 -55.78289795 86.08633423 C-55.79236428 84.32937911 -55.79888839 82.5724061 -55.80273438 80.81542969 C-55.81228619 78.18390375 -55.84322536 75.55321222 -55.875 72.921875 C-55.99959448 53.17464303 -53.33551288 33.98725345 -39.5625 18.75 C-28.15090105 8.38473677 -14.87215138 3.13097924 0 0 Z " fill="#FECF85" transform="translate(106.5625,246.25)"/>
<path d="M0 0 C9.21436792 1.05608801 15.38995324 7.71329165 21.2109375 14.5546875 C28.74696865 24.85502702 31.17847719 37.60278993 29.7578125 50.13671875 C27.17277731 64.82921467 17.67194045 76.15043281 5.875 84.6875 C-15.0741652 98.4330926 -38.60150055 105.87347466 -62.99609375 110.828125 C-77.78307137 113.88137848 -90.50105438 121.34541695 -99.47265625 133.65234375 C-104.03687209 140.66792872 -106.90305662 147.92393426 -109 156 C-109.185625 156.62132812 -109.37125 157.24265625 -109.5625 157.8828125 C-111.31402976 166.35896545 -110.13917314 175.07685375 -107.75390625 183.28125 C-106.952652 186.17074719 -106.44877891 189.03718776 -106 192 C-110.13738292 190.53974721 -113.44162297 188.56203146 -117 186 C-117.83724609 185.40251953 -117.83724609 185.40251953 -118.69140625 184.79296875 C-127.84310372 177.68863089 -133.52678766 166.18066074 -136 155 C-137.42016555 139.65681908 -135.41154849 126.82633719 -125.92578125 114.2734375 C-114.55994997 100.85576244 -101.35456791 96.83086407 -84.73242188 93.39868164 C-60.78001657 88.33649089 -35.44755939 79.69950436 -17 63 C-16.1853125 62.37867188 -15.370625 61.75734375 -14.53125 61.1171875 C-4.68072008 52.8780097 1.40335646 40.64541687 3 28 C3.5471461 18.1303261 3.01705514 9.48217329 0 0 Z " fill="#B4DAFD" transform="translate(239,282)"/>
<path d="M0 0 C11.65424315 5.85177794 19.64748245 14.22109129 24.390625 26.40234375 C27.45977608 38.17175785 26.14213312 50.24983929 20.3125 60.9375 C14.2438918 70.68851609 5.52049104 77.31111615 -5.55517578 80.47021484 C-15.39529737 82.62661428 -28.04769205 82.31760019 -36.6875 76.9375 C-47.40224251 69.84117873 -53.30484474 61.47467755 -58 49.625 C-60.30947337 37.23782463 -58.39847479 26.17000071 -51.4375 15.625 C-39.44310682 -0.26566102 -19.10357484 -7.5473968 0 0 Z " fill="#030403" transform="translate(353.6875,183.0625)"/>
<path d="M0 0 C3.77287593 1.33160327 5.71296901 2.69088971 8.4375 5.625 C10.54351318 10.17398847 10.59146818 13.25726646 9 18 C7.03199031 21.32906313 4.55716181 24.10968683 2 27 C1.13264469 28.02108933 0.26821818 29.04467148 -0.59375 30.0703125 C-2.46897258 32.30084743 -4.35217225 34.52417437 -6.2421875 36.7421875 C-8.69788371 39.63233998 -11.10677164 42.55778736 -13.5 45.5 C-17.24787798 50.1045358 -21.06983444 54.64019191 -24.9140625 59.1640625 C-27.81244823 62.5805954 -30.671551 66.02504838 -33.5 69.5 C-37.24852646 74.1053325 -41.07084246 78.64204444 -44.91625977 83.16625977 C-47.7954532 86.55954109 -50.63204237 89.98267786 -53.4375 93.4375 C-57.39443418 98.30049424 -61.46435942 103.05700203 -65.55615234 107.80615234 C-69.35163367 112.22031766 -73.05277913 116.70333198 -76.72265625 121.22265625 C-79.28204054 124.34396367 -81.88593791 127.4245003 -84.5 130.5 C-88.61989454 135.34814795 -92.66796095 140.24846005 -96.68359375 145.18359375 C-99.27787235 148.33785155 -101.91604673 151.45204343 -104.5625 154.5625 C-109.15049526 159.9567002 -113.61736706 165.43694443 -118 171 C-122.13405805 169.61707667 -124.70975815 167.72310257 -127.875 164.75 C-128.73609375 163.95207031 -129.5971875 163.15414062 -130.484375 162.33203125 C-131.31453125 161.56246094 -132.1446875 160.79289063 -133 160 C-135.31465892 157.97672545 -137.65499125 155.9881596 -140 154 C-138.55283792 149.30322249 -135.78937241 146.32231415 -132.4375 142.875 C-127.79027998 137.97755574 -123.44001945 132.94695564 -119.2109375 127.6796875 C-116.8906505 124.86746685 -114.46928866 122.18202737 -112 119.5 C-107.88621091 115.0301488 -104.02912703 110.40955107 -100.21484375 105.68359375 C-97.33519113 102.19449084 -94.29306124 98.87003079 -91.24609375 95.52734375 C-88.93812402 92.93037607 -86.74444137 90.26595987 -84.5625 87.5625 C-80.70174863 82.788597 -76.62562925 78.26611572 -72.46875 73.75 C-70.05621896 71.06262366 -67.7674379 68.31034556 -65.5 65.5 C-61.66280969 60.74404581 -57.60614899 56.24495199 -53.46875 51.75 C-51.05621896 49.06262366 -48.7674379 46.31034556 -46.5 43.5 C-42.66048198 38.74116077 -38.60140321 34.23937025 -34.4609375 29.7421875 C-32.08960105 27.09984117 -29.84747003 24.39305833 -27.625 21.625 C-24.11483201 17.28265314 -20.46295581 13.11084769 -16.6875 9 C-15.93170654 8.17169678 -15.93170654 8.17169678 -15.16064453 7.32666016 C-10.16141054 1.93323331 -7.60256428 -0.78647217 0 0 Z " fill="#DA8657" transform="translate(328,15)"/>
<path d="M0 0 C10.36415868 6.9848491 16.40961478 16.07940799 19.05078125 28.3046875 C20.27982997 39.95731401 17.20222997 50.35519565 10.2265625 59.765625 C6.06843198 64.68349253 1.84408584 68.46374006 -3.94921875 71.3046875 C-4.57828125 71.62308594 -5.20734375 71.94148438 -5.85546875 72.26953125 C-15.02610158 76.09650687 -27.14579945 75.81760827 -36.38671875 72.3671875 C-47.06070921 67.16929091 -55.26270389 58.23550653 -59.82421875 47.3046875 C-62.53047505 38.08396992 -62.48871173 26.19305765 -58.26953125 17.50390625 C-51.58401902 6.36797907 -42.56529281 -1.42037454 -30.0625 -5.27734375 C-19.42769749 -7.38071504 -9.3001109 -5.34602401 0 0 Z " fill="#040303" transform="translate(244.94921875,399.6953125)"/>
<path d="M0 0 C12.69495023 6.67362996 20.39597744 15.29730733 24.9765625 29.0390625 C25.81614645 42.35938471 24.07852961 53.12620884 15.9765625 64.0390625 C9.88816015 70.76903843 1.14496895 76.42175704 -8.07885742 77.21606445 C-26.89727853 77.74625007 -26.89727853 77.74625007 -34.0234375 73.0390625 C-35.0340625 72.4615625 -36.0446875 71.8840625 -37.0859375 71.2890625 C-46.35797633 64.18707531 -52.84024142 55.74893237 -55.0234375 44.0390625 C-56.12082338 31.36003486 -53.11227386 20.92541805 -45.0234375 11.0390625 C-33.83450501 -0.92152051 -15.61957394 -6.45287417 0 0 Z " fill="#030303" transform="translate(334.0234375,370.9609375)"/>
<path d="M0 0 C4.84673526 1.05746951 7.28529999 3.8134556 10.79296875 7.21875 C14.20274555 10.48246546 17.87492484 13.32917249 21.6015625 16.21875 C22.20742187 16.7240625 22.81328125 17.229375 23.4375 17.75 C23.4375 18.08 23.4375 18.41 23.4375 18.75 C22.88425049 18.84869385 22.33100098 18.9473877 21.76098633 19.04907227 C16.05347819 20.17581675 11.24014495 21.93678454 6.125 24.6875 C5.0280481 25.27640015 5.0280481 25.27640015 3.90893555 25.87719727 C-11.84477142 34.69520146 -21.12947728 47.88491839 -26.28125 65.16015625 C-26.8069453 67.35184178 -27.21802596 69.52293525 -27.5625 71.75 C-27.67335938 72.44609375 -27.78421875 73.1421875 -27.8984375 73.859375 C-29.03302578 82.75209396 -28.64516193 91.80414195 -28.5625 100.75 C-46.56738998 104.58374083 -46.56738998 104.58374083 -52.625 100.875 C-56.13654581 97.02362718 -55.73890979 93.56807013 -55.765625 88.5859375 C-55.77132507 87.76106842 -55.77702515 86.93619934 -55.78289795 86.08633423 C-55.79236428 84.32937911 -55.79888839 82.5724061 -55.80273438 80.81542969 C-55.81228619 78.18390375 -55.84322536 75.55321222 -55.875 72.921875 C-55.99959448 53.17464303 -53.33551288 33.98725345 -39.5625 18.75 C-28.15090105 8.38473677 -14.87215138 3.13097924 0 0 Z " fill="#FCC164" transform="translate(106.5625,246.25)"/>
<path d="M0 0 C7.90002552 4.38063326 15.16724822 10.15226846 18.90234375 18.609375 C19.30890536 22.40585876 19.13636142 23.28316856 16.83984375 26.484375 C13.90234375 28.609375 13.90234375 28.609375 10.5234375 28.57421875 C6.08003666 27.39027052 4.83977226 25.87159474 2.02734375 22.296875 C-3.14378001 16.30024052 -7.11053906 13.09894802 -15.08203125 12.31640625 C-23.28919325 12.10204008 -29.33557412 12.89462356 -35.78515625 18.234375 C-42.3369514 24.51783724 -44.47606163 29.3254486 -44.72265625 38.484375 C-44.66938147 45.81599912 -43.02751963 51.11550182 -38.09765625 56.609375 C-32.5747344 61.84738422 -27.11675143 64.57216208 -19.47265625 65.046875 C-11.70410264 64.8135851 -4.85082231 62.37029646 0.67578125 56.828125 C2.35210335 54.87493288 3.98196145 52.88038772 5.55078125 50.83984375 C7.90234375 48.609375 7.90234375 48.609375 11.0078125 48.15625 C13.90234375 48.609375 13.90234375 48.609375 16.83984375 50.671875 C18.90234375 53.609375 18.90234375 53.609375 18.83203125 56.9140625 C17.77253059 61.12535504 16.02588727 63.6104112 13.08984375 66.671875 C12.60281982 67.18991699 12.1157959 67.70795898 11.61401367 68.24169922 C3.53692623 76.42047429 -7.02130222 80.5197262 -18.41015625 80.921875 C-30.16488684 80.64586613 -40.36822204 76.31508166 -48.91015625 68.234375 C-56.78578326 59.80282138 -60.63974321 50.67302736 -60.47265625 39.171875 C-60.48425781 38.37716797 -60.49585938 37.58246094 -60.5078125 36.76367188 C-60.45620871 26.1934956 -56.3462905 16.550782 -49.3515625 8.6328125 C-36.00825053 -3.96149859 -16.75241903 -7.520632 0 0 Z " fill="#020404" transform="translate(396.09765625,285.390625)"/>
<path d="M0 0 C-0.13096266 8.25064751 -2.63376912 11.9346475 -8 18 C-8.86735531 19.02108933 -9.73178182 20.04467148 -10.59375 21.0703125 C-12.46897258 23.30084743 -14.35217225 25.52417437 -16.2421875 27.7421875 C-18.69788371 30.63233998 -21.10677164 33.55778736 -23.5 36.5 C-27.24787798 41.1045358 -31.06983444 45.64019191 -34.9140625 50.1640625 C-37.81244823 53.5805954 -40.671551 57.02504838 -43.5 60.5 C-47.24852646 65.1053325 -51.07084246 69.64204444 -54.91625977 74.16625977 C-57.7954532 77.55954109 -60.63204237 80.98267786 -63.4375 84.4375 C-67.39443418 89.30049424 -71.46435942 94.05700203 -75.55615234 98.80615234 C-79.35163367 103.22031766 -83.05277913 107.70333198 -86.72265625 112.22265625 C-89.28204054 115.34396367 -91.88593791 118.4245003 -94.5 121.5 C-98.61989454 126.34814795 -102.66796095 131.24846005 -106.68359375 136.18359375 C-109.27787235 139.33785155 -111.91604673 142.45204343 -114.5625 145.5625 C-119.15049526 150.9567002 -123.61736706 156.43694443 -128 162 C-131.51802689 160.74833586 -134.04189933 159.37397315 -136.8125 156.875 C-137.41707031 156.33617187 -138.02164063 155.79734375 -138.64453125 155.2421875 C-139.09183594 154.83226562 -139.53914062 154.42234375 -140 154 C-136.19048131 145.42359667 -128.49958841 138.38776337 -122.24609375 131.52734375 C-119.93812402 128.93037607 -117.74444137 126.26595987 -115.5625 123.5625 C-111.70174863 118.788597 -107.62562925 114.26611572 -103.46875 109.75 C-101.05621896 107.06262366 -98.7674379 104.31034556 -96.5 101.5 C-92.66280969 96.74404581 -88.60614899 92.24495199 -84.46875 87.75 C-82.05621896 85.06262366 -79.7674379 82.31034556 -77.5 79.5 C-73.66280969 74.74404581 -69.60614899 70.24495199 -65.46875 65.75 C-63.05621896 63.06262366 -60.7674379 60.31034556 -58.5 57.5 C-55.44651321 53.71539666 -52.29331699 50.07792463 -49 46.5 C-44.88621091 42.0301488 -41.02912703 37.40955107 -37.21484375 32.68359375 C-34.33927642 29.19944075 -31.30233369 25.87921236 -28.2578125 22.54296875 C-25.87767687 19.86222776 -23.62268159 17.10495866 -21.375 14.3125 C-9.41155697 -0.42779804 -9.41155697 -0.42779804 0 0 Z " fill="#E09972" transform="translate(338,24)"/>
<path d="M0 0 C3.62211321 2.69719139 6.31125089 6.069301 9.19140625 9.5234375 C12.31348998 12.73504334 15.11996831 13.55101773 19.37109375 14.765625 C22.08024342 20.18392433 20.64581789 29.02936636 19.37109375 34.765625 C18.31277344 34.65863281 17.25445312 34.55164063 16.1640625 34.44140625 C12.29008593 34.38544918 12.29008593 34.38544918 9.921875 36.99609375 C9.18324219 37.97191406 8.44460938 38.94773437 7.68359375 39.953125 C2.0365195 46.60279059 -3.67242238 49.80630842 -12.296875 51.1953125 C-20.04138238 51.6035501 -26.33696456 48.76291348 -32.37890625 44.078125 C-38.04186465 38.73197546 -40.80617156 33.74360156 -41.16992188 25.82739258 C-41.26415861 16.50973573 -39.5983742 10.72380729 -33.19140625 3.953125 C-24.03209581 -4.62030204 -11.09187262 -6.17595468 0 0 Z " fill="#5FB8FC" transform="translate(391.62890625,300.234375)"/>
<path d="M0 0 C4.713555 3.96367125 9.03508734 9.10526201 11 15 C11.60384831 23.34498565 12.05710019 30.95869036 7 38 C6.4225 38.886875 5.845 39.77375 5.25 40.6875 C-1.0352769 47.14736793 -7.2822638 49.13790011 -16.125 49.4375 C-24.3483209 49.51927447 -29.53746022 47.00965827 -35.578125 41.58203125 C-40.4434193 36.35037443 -43.18662681 29.76263941 -43.625 22.6875 C-43.29679208 14.62942969 -39.53303563 6.9245032 -33.625 1.4375 C-23.77467335 -5.82176246 -10.43741266 -6.70976528 0 0 Z " fill="#4ACB5A" transform="translate(353,200)"/>
<path d="M0 0 C7.16380741 4.03177714 12.4212998 10.05502286 14.75 18 C16.18237921 26.37503352 13.45699145 33.09375884 8.75 40 C3.23350754 45.57025944 -2.70718384 48.28092436 -10.5625 48.375 C-17.60380679 48.2321099 -22.05869134 47.03013146 -27.18359375 42.1640625 C-33.38025071 35.43920817 -35.80470764 30.18264496 -35.53125 20.96484375 C-34.83259006 13.59980355 -31.85182991 7.8691011 -26.25 3 C-17.93023926 -2.7800443 -9.36772193 -4.17289432 0 0 Z " fill="#FB4552" transform="translate(234.25,411)"/>
<path d="M0 0 C6.37694512 2.75828182 11.74361505 8.68375793 14.796875 14.83984375 C17.07123023 22.18690306 16.24305473 29.75978966 12.7109375 36.51953125 C8.95464331 42.8894707 4.67927275 46.19133129 -2.40625 48.4140625 C-9.06176757 49.29071128 -15.97648606 49.81350386 -21.96875 46.3515625 C-28.42909242 41.36586346 -33.60767903 35.17264649 -34.7578125 26.87890625 C-35.14117036 19.70607884 -33.51832395 14.30321364 -29.40625 8.4140625 C-21.48034999 -0.32285983 -11.47092627 -2.79324503 0 0 Z " fill="#FBB33F" transform="translate(328.40625,384.5859375)"/>
<path d="M0 0 C1.03382813 -0.01417969 2.06765625 -0.02835937 3.1328125 -0.04296875 C5.875 0.1875 5.875 0.1875 8.875 2.1875 C8.153125 2.826875 7.43125 3.46625 6.6875 4.125 C0.7285073 10.0839927 -2.16608095 17.3449356 -2.4375 25.6875 C-2.32261925 35.29440299 0.93373811 43.76092264 6.875 51.1875 C6.875 51.8475 6.875 52.5075 6.875 53.1875 C0.96376095 55.15791302 -5.04698176 54.94584459 -10.8125 52.5625 C-17.47553005 49.18985516 -22.7960964 44.73273749 -26.2421875 38.01171875 C-28.44901134 30.9518354 -28.62957924 21.45258509 -25.5625 14.625 C-21.7906664 8.57936601 -15.93948004 2.37451836 -8.859375 0.62890625 C-5.87045558 0.14640926 -3.02707983 0.01896667 0 0 Z " fill="#1CA6FC" transform="translate(378.125,296.8125)"/>
<path d="M0 0 C7.89940421 2.9429153 12.60760439 7.87080405 17 15 C19.20955157 21.62865471 19.37132383 31.247707 16.25 37.625 C15.53832554 38.77462797 14.79103341 39.90346403 14 41 C13.38125 41.9075 12.7625 42.815 12.125 43.75 C8.79155389 47.27953117 5.71580082 49.53530394 1 50.8125 C-3.28042357 49.65321862 -4.47043826 47.27265931 -6.67578125 43.55078125 C-11.47852263 34.29948296 -12.82822656 24.36558441 -9.875 14.1875 C-7.75414094 8.68747315 -4.13905982 4.13905982 0 0 Z " fill="#71D376" transform="translate(346,197)"/>
<path d="M0 0 C4.03805866 1.36266644 6.54368118 3.1409151 9.625 6.0625 C13.06304816 9.24737819 16.53899223 12.30835662 20.1875 15.25 C24.8806037 19.07326121 29.55845517 22.91194448 34.1875 26.8125 C34.85998779 27.36389648 35.53247559 27.91529297 36.2253418 28.48339844 C36.84578369 29.01094727 37.46622559 29.53849609 38.10546875 30.08203125 C38.66387451 30.54843018 39.22228027 31.0148291 39.79760742 31.49536133 C41 33 41 33 41 37 C39.06640625 39.5078125 39.06640625 39.5078125 36.5625 42.125 C33.40966121 45.30053748 33.40966121 45.30053748 31 49 C27.85454286 48.41121629 26.08856179 47.50426529 23.71484375 45.375 C23.10745361 44.83786377 22.50006348 44.30072754 21.87426758 43.74731445 C21.23513428 43.17070068 20.59600098 42.59408691 19.9375 42 C18.58697856 40.80481219 17.23540988 39.6108067 15.8828125 38.41796875 C15.22055664 37.83192871 14.55830078 37.24588867 13.87597656 36.64208984 C10.56296627 33.74212794 7.13914615 30.98228258 3.71875 28.2109375 C0.56258256 25.6442841 -2.56460253 23.0444445 -5.6875 20.4375 C-6.21754639 19.99510986 -6.74759277 19.55271973 -7.29370117 19.09692383 C-8.52947446 18.06502333 -9.76479025 17.03257499 -11 16 C-10.46511282 11.8928306 -8.27954908 9.82167386 -5.5 6.875 C-2.38621216 3.69217817 -2.38621216 3.69217817 0 0 Z " fill="#786A76" transform="translate(147,195)"/>
<path d="M0 0 C6.27260683 1.82951032 10.53985827 7.02136404 13.625 12.578125 C16.47077365 19.01753773 16.87442843 24.17635787 14.55078125 30.8515625 C11.56474772 37.47810266 8.19578794 42.40042389 1.625 45.765625 C-0.6171875 46.41015625 -0.6171875 46.41015625 -2.375 46.765625 C-3.32200919 45.58569445 -4.25706299 44.39616711 -5.1875 43.203125 C-5.70957031 42.54183594 -6.23164063 41.88054687 -6.76953125 41.19921875 C-10.77095756 35.13379639 -11.93260203 30.10335589 -11.875 22.953125 C-11.87145508 22.16212402 -11.86791016 21.37112305 -11.86425781 20.55615234 C-11.6389269 12.5960929 -9.07270335 7.39066388 -4.375 1.078125 C-2.375 -0.234375 -2.375 -0.234375 0 0 Z " fill="#FC616C" transform="translate(233.375,411.234375)"/>
<path d="M0 0 C5.65210226 0.73037445 9.76939998 5.90990416 13.12890625 10.234375 C16.4491078 15.87871764 16.49827243 21.97406702 15.66015625 28.34375 C13.65287203 35.14393735 10.23795571 40.8958271 4.16015625 44.71875 C0.66015625 46.34375 0.66015625 46.34375 -1.36328125 46.20703125 C-4.02844765 45.04299612 -4.9062894 43.59200117 -6.46484375 41.15625 C-6.96242188 40.39957031 -7.46 39.64289063 -7.97265625 38.86328125 C-12.07713265 31.2993176 -12.50663646 23.08402944 -10.8046875 14.7109375 C-9.17440959 9.45485026 -6.0471345 0.88839372 0 0 Z " fill="#FCC163" transform="translate(328.33984375,385.65625)"/>
<path d="M0 0 C2.87092102 1.05472905 4.71574214 2.6404626 7.0546875 4.61328125 C8.02019531 5.4228125 8.98570312 6.23234375 9.98046875 7.06640625 C14.00899185 10.50039224 18.03087151 13.94285627 22.02758789 17.41381836 C26.32317989 21.12952032 30.76322316 24.58314442 35.38671875 27.88671875 C37.84096952 30.50672501 38.15254411 32.23594926 38.1796875 35.80078125 C36.74609375 38.35546875 36.74609375 38.35546875 34.7421875 40.67578125 C34.08347656 41.45695312 33.42476562 42.238125 32.74609375 43.04296875 C32.22917969 43.62304688 31.71226562 44.203125 31.1796875 44.80078125 C28.42781438 43.52473966 26.23451785 42.15605188 23.96484375 40.1484375 C23.36760498 39.62467529 22.77036621 39.10091309 22.1550293 38.5612793 C21.5237915 38.00093994 20.89255371 37.44060059 20.2421875 36.86328125 C18.89635998 35.68299297 17.54999623 34.50331587 16.203125 33.32421875 C15.19137207 32.43621582 15.19137207 32.43621582 14.15917969 31.53027344 C6.00775424 24.4083324 -2.31744353 17.49942972 -10.8203125 10.80078125 C-8.85525345 6.60683578 -5.35642044 -0.58621769 0 0 Z " fill="#908190" transform="translate(168.8203125,173.19921875)"/>
<path d="M0 0 C3.80592193 0.59494872 5.89667253 2.29550929 8.8125 4.75 C9.77800781 5.55953125 10.74351562 6.3690625 11.73828125 7.203125 C15.98933926 10.83453726 20.21057336 14.50082333 24.421875 18.17822266 C29.16232657 22.3090833 33.99669075 26.29035291 38.92578125 30.1953125 C41 32 41 32 43 35 C41.97776768 36.32769227 40.93120761 37.63667288 39.875 38.9375 C39.29492188 39.66839844 38.71484375 40.39929688 38.1171875 41.15234375 C35.35581932 43.56217244 33.65296366 43.99532271 30 44 C27.61328125 42.4453125 27.61328125 42.4453125 25.3125 40.125 C21.91080365 36.83466871 18.50787639 33.70850074 14.8125 30.75 C13.91660156 30.01523438 13.02070313 29.28046875 12.09765625 28.5234375 C10.41832082 27.15540384 8.73549323 25.79141752 7.03466797 24.45019531 C4.92174041 22.77969111 2.83541332 21.07967092 0.75 19.375 C0.0691333 18.84874023 -0.6117334 18.32248047 -1.31323242 17.78027344 C-3.13158376 16.27034418 -4.63630747 14.93139396 -6 13 C-6.13730499 6.83435209 -4.02969688 4.236348 0 0 Z " fill="#8F818F" transform="translate(124,222)"/>
<path d="M0 0 C4.2597105 1.40715751 6.91991422 3.45486711 10.1875 6.5 C11.04730469 7.2940625 11.90710938 8.088125 12.79296875 8.90625 C14.21251217 10.2529319 15.61640763 11.61640763 17 13 C16.319375 13.66 15.63875 14.32 14.9375 15 C11.9860875 17.94297989 9.27164339 21.07523395 6.55078125 24.23046875 C5.41306678 25.52866688 4.2205967 26.7794033 3 28 C2.24074219 27.30132812 1.48148438 26.60265625 0.69921875 25.8828125 C-0.30459053 24.96343578 -1.30850215 24.04417079 -2.3125 23.125 C-2.81201172 22.66480469 -3.31152344 22.20460937 -3.82617188 21.73046875 C-6.14209043 19.61393392 -8.38289574 17.74473617 -11 16 C-10.46511282 11.8928306 -8.27954908 9.82167386 -5.5 6.875 C-2.38621216 3.69217817 -2.38621216 3.69217817 0 0 Z " fill="#645C66" transform="translate(147,195)"/>
<path d="M0 0 C4.10686589 0.56445076 6.49914342 2.77152377 9.625 5.375 C10.58664063 6.16648438 11.54828125 6.95796875 12.5390625 7.7734375 C15 10 15 10 17 13 C15.89718873 14.27200971 14.79269231 15.54255853 13.6875 16.8125 C13.07261719 17.52019531 12.45773438 18.22789062 11.82421875 18.95703125 C10.26665665 20.70136739 8.67341125 22.36778041 7 24 C5.20724155 22.54300902 3.41582771 21.08436345 1.625 19.625 C0.62726563 18.81289062 -0.37046875 18.00078125 -1.3984375 17.1640625 C-4 15 -4 15 -6 13 C-5.88271462 6.90116042 -4.02942919 4.23606658 0 0 Z " fill="#786A76" transform="translate(124,222)"/>
<path d="M0 0 C3.16180035 1.18291132 5.3772228 3.07969404 7.984375 5.2109375 C9.46164063 6.39816406 9.46164063 6.39816406 10.96875 7.609375 C11.71640625 8.34414062 12.4640625 9.07890625 13.234375 9.8359375 C13.234375 12.8359375 13.234375 12.8359375 11.046875 15.2109375 C10.11875 16.0771875 9.190625 16.9434375 8.234375 17.8359375 C6.56405471 19.49894252 4.8968453 21.165085 3.234375 22.8359375 C2.47511719 22.13726562 1.71585938 21.43859375 0.93359375 20.71875 C-0.07021553 19.79937328 -1.07412715 18.88010829 -2.078125 17.9609375 C-2.57763672 17.50074219 -3.07714844 17.04054687 -3.59179688 16.56640625 C-5.90771543 14.44987142 -8.14852074 12.58067367 -10.765625 10.8359375 C-8.99111751 6.64164706 -5.17381616 -0.48075283 0 0 Z " fill="#776975" transform="translate(168.765625,173.1640625)"/>
</svg>
